<svg width="66" height="45" viewBox="0 0 66 45" fill="none" xmlns="http://www.w3.org/2000/svg">
<rect x="19.8892" y="8.53213" width="24.2259" height="23.945" fill="white"/>
<path d="M19.8013 0.100005C9.97139 0.55872 6.46212 1.36606 3.92987 3.71469C1.47737 6.00827 0.480417 9.23763 0.0816367 16.1367C-0.137692 20.2652 0.101576 27.0541 0.600051 30.1C1.47737 35.4578 3.21206 38.2285 6.68145 39.7881C9.27352 40.9624 11.6463 41.256 21.4363 41.5863C27.6374 41.7881 41.5149 41.7147 44.8846 41.4395L46.3401 41.3294L46.4 30.3936L46.4598 19.4578L46.9184 18.5954C47.1776 18.1 47.7558 17.4395 48.1945 17.0908C49.6301 15.9532 50.1485 15.8798 56.4692 15.8798H62.1119V14.9807C62.1119 13.4395 61.5337 9.95322 61.0153 8.2835C60.3373 6.13671 59.6793 4.99909 58.4032 3.76973C56.0903 1.5312 53.4584 0.797254 46.061 0.265144C42.5517 0.0266117 23.9686 -0.10183 19.8013 0.100005ZM24.9655 11.8064C26.2616 12.5037 30.1098 14.5587 33.4994 16.3569C36.909 18.1734 40.1989 19.9349 40.837 20.2652C41.7941 20.7789 41.9536 20.9257 41.7342 21.1092C41.475 21.3477 22.6925 31.2927 22.513 31.2927C22.4731 31.2927 22.4333 26.6321 22.4333 20.9257C22.4333 15.2193 22.4731 10.5587 22.513 10.5587C22.5529 10.5587 23.6496 11.1275 24.9655 11.8064Z" fill="#FF0000"/>
<path d="M49.8632 18.0454C49.4831 18.2487 49.0878 18.6214 48.9054 18.9433C48.6165 19.4855 48.6013 19.7735 48.6013 31.9886V44.4748L48.9358 44.729C49.1182 44.8814 49.4223 45 49.6047 45C49.8024 45 50.821 44.1699 52.1893 42.8653C53.436 41.6963 55.0627 40.1546 55.7925 39.46C56.5222 38.7654 57.1912 38.2232 57.2672 38.2571C57.3432 38.291 58.9852 39.8158 60.916 41.6455C64.6712 45.2372 64.8688 45.3558 65.5682 44.5765L65.9483 44.1529L65.9026 31.8361C65.857 20.0954 65.8418 19.4685 65.5682 18.9772C65.4161 18.6892 65.0665 18.2995 64.808 18.1301C64.3671 17.8252 63.8958 17.8082 57.4192 17.7743C50.8514 17.7235 50.4713 17.7405 49.8632 18.0454Z" fill="#FF0000"/>
</svg>
