<svg width="41" height="29" viewBox="0 0 41 29" fill="none" xmlns="http://www.w3.org/2000/svg">
<path d="M12.2763 0.0625683C6.182 0.349552 4.00634 0.854644 2.43641 2.324C0.915929 3.75892 0.297846 5.77928 0.0506126 10.0955C-0.0853656 12.6784 0.0629743 16.9257 0.372016 18.8313C0.915929 22.1832 1.99139 23.9166 4.14232 24.8924C5.74934 25.627 7.22038 25.8107 13.2899 26.0173C17.1344 26.1436 25.7381 26.0977 27.8273 25.9255L28.7297 25.8566L28.7667 19.0149L28.8038 12.1733L29.0881 11.6337C29.2489 11.3238 29.6073 10.9105 29.8793 10.6924C30.7693 9.98071 31.0907 9.93479 35.0094 9.93479H38.5077V9.37231C38.5077 8.40804 38.1492 6.22697 37.8278 5.18235C37.4075 3.83927 36.9996 3.12755 36.2085 2.35844C34.7745 0.957958 33.1428 0.498784 28.5566 0.165883C26.3809 0.0166521 14.8599 -0.0637043 12.2763 0.0625683ZM15.478 7.38638C16.2815 7.8226 18.6673 9.10828 20.7688 10.2333C22.8826 11.3697 24.9223 12.4717 25.3178 12.6784C25.9112 12.9998 26.0101 13.0916 25.8741 13.2064C25.7134 13.3556 14.0687 19.5774 13.9575 19.5774C13.9328 19.5774 13.908 16.6617 13.908 13.0916C13.908 9.52154 13.9328 6.60579 13.9575 6.60579C13.9822 6.60579 14.6621 6.96165 15.478 7.38638Z" fill="#FF3333"/>
<path d="M30.9133 11.2898C30.6777 11.417 30.4326 11.6501 30.3195 11.8515C30.1404 12.1907 30.131 12.3709 30.131 20.013V27.8246L30.3383 27.9836C30.4515 28.079 30.64 28.1532 30.7531 28.1532C30.8756 28.1532 31.5071 27.6338 32.3554 26.8177C33.1283 26.0863 34.1369 25.1218 34.5893 24.6872C35.0417 24.2527 35.4565 23.9135 35.5036 23.9347C35.5507 23.9559 36.5687 24.9098 37.7657 26.0545C40.0939 28.3016 40.2164 28.3758 40.65 27.8882L40.8856 27.6232L40.8573 19.9176C40.8291 12.5723 40.8196 12.1801 40.65 11.8727C40.5557 11.6925 40.3389 11.4488 40.1787 11.3428C39.9054 11.152 39.6132 11.1414 35.5978 11.1202C31.526 11.0884 31.2903 11.099 30.9133 11.2898Z" fill="#FF3333"/>
</svg>
