<svg width="27" height="20" viewBox="0 0 27 20" fill="none" xmlns="http://www.w3.org/2000/svg">
<path d="M8.01814 0.0426121C4.03771 0.238215 2.6167 0.582477 1.59132 1.58396C0.598229 2.56198 0.194535 3.93902 0.0330571 6.88088C-0.0557557 8.64131 0.041131 11.5362 0.242978 12.835C0.59823 15.1197 1.30066 16.3011 2.70552 16.9662C3.75512 17.4669 4.71591 17.5921 8.6802 17.7329C11.1912 17.819 16.8106 17.7877 18.1751 17.6703L18.7645 17.6234L18.7887 12.9602L18.8129 8.29705L18.9986 7.92931C19.1036 7.71806 19.3377 7.43639 19.5154 7.28774C20.0967 6.80264 20.3066 6.77134 22.866 6.77134H25.1509V6.38796C25.1509 5.73074 24.9168 4.24416 24.7069 3.53216C24.4324 2.61674 24.1659 2.13165 23.6492 1.60743C22.7126 0.652893 21.6469 0.339929 18.6515 0.11303C17.2304 0.0113164 9.70558 -0.0434531 8.01814 0.0426121ZM10.1093 5.03439C10.6341 5.33171 12.1923 6.20801 13.5649 6.97477C14.9455 7.74936 16.2777 8.50047 16.5361 8.64131C16.9236 8.86038 16.9882 8.92297 16.8994 9.00121C16.7945 9.10293 9.18885 13.3436 9.11619 13.3436C9.10004 13.3436 9.08389 11.3563 9.08389 8.92297C9.08389 6.48968 9.10004 4.50235 9.11619 4.50235C9.13233 4.50235 9.5764 4.7449 10.1093 5.03439Z" fill="#FF0032"/>
<path d="M20.1908 7.69491C20.0369 7.7816 19.8768 7.94053 19.8029 8.07779C19.686 8.30897 19.6798 8.43178 19.6798 13.6405V18.9648L19.8152 19.0731C19.8891 19.1382 20.0122 19.1887 20.0861 19.1887C20.1662 19.1887 20.5786 18.8347 21.1327 18.2785C21.6375 17.78 22.2962 17.1226 22.5917 16.8264C22.8872 16.5302 23.1581 16.299 23.1889 16.3135C23.2197 16.3279 23.8845 16.9781 24.6664 17.7583C26.187 19.2899 26.267 19.3404 26.5502 19.0081L26.7041 18.8275L26.6856 13.5755C26.6672 8.56904 26.661 8.30175 26.5502 8.09224C26.4886 7.96943 26.347 7.80327 26.2424 7.73103C26.0638 7.60099 25.873 7.59377 23.2504 7.57932C20.5909 7.55765 20.437 7.56487 20.1908 7.69491Z" fill="#FF0032"/>
</svg>
